# xmcd
#
# Track frame offsets: 
#        150
#        12528
#        26404
#        36826
#        49061
#        61909
#        81272
#        94526
#        106143
#        117936
#        131378
#        140637
#        154666
#
# Disc length: 2225 seconds
#
# Revision: 2
# Processed by: cddbd v1.5.2PL0 Copyright (c) Steve Scherf et al.
# Submitted via: ExactAudioCopyFreeDBPlugin 1.0
#
DISCID=a208af0d
DTITLE=Nina Simone - 2012 - Broadway   Blues   Ballads
DYEAR=2012
DGENRE=
TTITLE0=Don't Let Me Be Misunderstood
TTITLE1=Night Song
TTITLE2=The Laziest Gal in Town
TTITLE3=Something Wonderful
TTITLE4=Don't Take All Night
TTITLE5=Nobody
TTITLE6=I Am Blessed
TTITLE7=Oh This I'm Sure
TTITLE8=See-Line Woman
TTITLE9=Our Love (Will See Us Through)
TTITLE10=How Can I?
TTITLE11=The Last Rose of Summer
TTITLE12=A Monster [bonus track]
EXTD=
EXTT0=
EXTT1=
EXTT2=
EXTT3=
EXTT4=
EXTT5=
EXTT6=
EXTT7=
EXTT8=
EXTT9=
EXTT10=
EXTT11=
EXTT12=
PLAYORDER=
